<?xml version="1.0" standalone="no"?>
<!DOCTYPE svg PUBLIC "-//W3C//DTD SVG 20010904//EN"
 "http://www.w3.org/TR/2001/REC-SVG-20010904/DTD/svg10.dtd">
<svg version="1.0" xmlns="http://www.w3.org/2000/svg"
 width="500.000000pt" height="500.000000pt" viewBox="0 0 500.000000 500.000000"
 preserveAspectRatio="xMidYMid meet">

<g transform="translate(0.000000,500.000000) scale(0.100000,-0.100000)"
fill="#000000" stroke="none">
<path d="M1560 3060 c-259 -32 -392 -207 -393 -515 0 -276 109 -435 329 -476
80 -15 230 -5 339 23 l90 23 3 178 2 178 -57 -3 -58 -3 -3 -132 -3 -132 -32
-10 c-18 -6 -64 -15 -103 -21 -181 -25 -316 48 -359 193 -22 75 -29 209 -16
297 30 194 125 288 298 298 95 5 153 -7 236 -49 32 -16 61 -29 66 -29 12 0 18
18 26 74 7 46 7 46 -29 61 -96 41 -230 58 -336 45z"/>
<path d="M2163 2566 l2 -494 114 -7 c163 -11 313 -1 386 24 122 43 212 139
256 273 21 65 24 91 24 233 -1 143 -3 166 -24 218 -46 115 -127 193 -237 227
-58 18 -93 20 -294 20 l-228 0 1 -494z m502 362 c28 -14 60 -37 72 -50 88 -96
117 -324 63 -500 -26 -84 -87 -155 -162 -189 -48 -21 -66 -23 -196 -21 -78 1
-147 4 -152 7 -11 7 -14 624 -3 725 l6 62 161 -4 c150 -3 164 -6 211 -30z"/>
<path d="M3386 3051 c-8 -13 -356 -964 -356 -973 0 -4 26 -8 59 -8 l59 0 11
48 c6 26 25 86 42 135 l31 87 213 0 212 0 37 -122 c20 -68 36 -129 36 -135 0
-9 19 -13 64 -13 l64 0 -165 495 -165 495 -68 0 c-38 0 -71 -4 -74 -9z m156
-369 c42 -130 76 -238 74 -239 -2 -2 -80 -2 -174 -1 l-170 3 84 230 c46 127
86 236 89 244 3 8 9 11 13 7 3 -4 41 -114 84 -244z"/>
<path d="M1110 1920 l0 -70 1385 0 1385 0 0 70 0 70 -1385 0 -1385 0 0 -70z"/>
</g>
</svg>
